<svg width="59" height="60" viewBox="0 0 59 60" fill="none" xmlns="http://www.w3.org/2000/svg">
<g clip-path="url(#clip0_385_11)">
<path d="M29.4072 37.4795C25.3832 37.4795 22.1211 40.8374 22.1211 44.9795V59.9795H36.6934V44.9795C36.6934 40.8374 33.4312 37.4795 29.4072 37.4795Z" fill="#60851B"/>
<path d="M41.5508 44.9805V59.9805H51.2656C55.2896 59.9805 58.5518 56.6226 58.5518 52.4805V29.678C58.5523 28.3792 58.062 27.1312 57.1844 26.198L36.5453 3.23042C32.9036 -0.825436 26.7572 -1.07446 22.817 2.67413C22.6299 2.85226 22.4495 3.03777 22.2766 3.23042L1.67382 26.1905C0.769651 27.1275 0.262354 28.3948 0.262695 29.7155V52.4805C0.262695 56.6226 3.52483 59.9805 7.54883 59.9805H17.2636V44.9805C17.3091 38.1634 22.6561 32.5966 29.1119 32.4362C35.7837 32.2705 41.4999 37.9322 41.5508 44.9805Z" fill="#60851B"/>
<path d="M29.4072 37.4795C25.3832 37.4795 22.1211 40.8374 22.1211 44.9795V59.9795H36.6934V44.9795C36.6934 40.8374 33.4312 37.4795 29.4072 37.4795Z" fill="#60851B"/>
</g>
<defs>
<clipPath id="clip0_385_11">
<rect width="58.2891" height="60" fill="white" transform="translate(0.262695)"/>
</clipPath>
</defs>
</svg>
