<svg width="69" height="70" viewBox="0 0 69 70" fill="none" xmlns="http://www.w3.org/2000/svg">
<g clip-path="url(#clip0_385_803)">
<path d="M65.1685 19.941L58.9858 13.5739L61.6691 10.8119C61.9398 10.5428 62.1556 10.221 62.3041 9.86513C62.4526 9.50928 62.5308 9.12656 62.5341 8.73928C62.5373 8.35201 62.4656 7.96794 62.3232 7.6095C62.1807 7.25105 61.9703 6.9254 61.7042 6.65154C61.4382 6.37769 61.1218 6.16112 60.7736 6.01447C60.4254 5.86781 60.0523 5.79402 59.676 5.79738C59.2998 5.80075 58.928 5.88121 58.5823 6.03407C58.2366 6.18693 57.9239 6.40912 57.6626 6.6877L54.9792 9.44978L48.7937 3.08561C46.8441 1.17322 44.2543 0.106445 41.5612 0.106445C38.8681 0.106445 36.2783 1.17322 34.3287 3.08561C33.3782 4.06318 32.6242 5.22397 32.1098 6.50164C31.5954 7.77931 31.3306 9.14881 31.3306 10.5319C31.3306 11.9149 31.5954 13.2844 32.1098 14.5621C32.6242 15.8398 33.3782 17.0005 34.3287 17.9781L40.5114 24.3423L23.8108 41.5331L17.6252 35.1689C15.6756 33.2565 13.0858 32.1898 10.3927 32.1898C7.69967 32.1898 5.10987 33.2565 3.16024 35.1689C2.20977 36.1465 1.45577 37.3073 0.941331 38.585C0.426894 39.8626 0.162109 41.2321 0.162109 42.6152C0.162109 43.9982 0.426894 45.3677 0.941331 46.6454C1.45577 47.9231 2.20977 49.0839 3.16024 50.0614L9.34293 56.4256L6.65961 59.1877C6.38898 59.4567 6.17312 59.7786 6.02462 60.1344C5.87612 60.4903 5.79796 60.873 5.79469 61.2603C5.79142 61.6475 5.86311 62.0316 6.00558 62.3901C6.14805 62.7485 6.35845 63.0742 6.62449 63.348C6.89054 63.6219 7.2069 63.8384 7.55513 63.9851C7.90335 64.1317 8.27647 64.2055 8.6527 64.2022C9.02893 64.1988 9.40074 64.1183 9.74644 63.9655C10.0921 63.8126 10.4048 63.5904 10.6662 63.3119L13.3495 60.5498L19.535 66.9139C20.4847 67.8919 21.6122 68.6676 22.8531 69.1969C24.0941 69.7262 25.4242 69.9986 26.7675 69.9986C28.1108 69.9986 29.4409 69.7262 30.6819 69.1969C31.9229 68.6676 33.0504 67.8919 34 66.9139C34.9504 65.9366 35.7044 64.7761 36.2188 63.4987C36.7332 62.2212 36.9979 60.852 36.9979 59.4692C36.9979 58.0863 36.7332 56.7171 36.2188 55.4396C35.7044 54.1622 34.9504 53.0017 34 52.0244L27.8173 45.6602L44.535 28.4664L50.7177 34.8306C51.6673 35.8085 52.7948 36.5843 54.0358 37.1136C55.2768 37.6429 56.6069 37.9153 57.9502 37.9153C59.2934 37.9153 60.6236 37.6429 61.8645 37.1136C63.1055 36.5843 64.233 35.8085 65.1827 34.8306C66.133 33.8533 66.887 32.6927 67.4014 31.4153C67.9158 30.1379 68.1806 28.7686 68.1806 27.3858C68.1806 26.003 67.9158 24.6337 67.4014 23.3563C66.887 22.0789 66.133 20.9183 65.1827 19.941H65.1685Z" fill="#E37F2D"/>
</g>
<defs>
<clipPath id="clip0_385_803">
<rect width="68.0039" height="70" fill="white" transform="translate(0.162109)"/>
</clipPath>
</defs>
</svg>
