<svg width="90" height="90" viewBox="0 0 90 90" fill="none" xmlns="http://www.w3.org/2000/svg">
<path d="M6.02545 67.5C9.12729 72.8835 16.0061 74.733 21.3896 71.6312C21.3933 71.6291 21.3968 71.627 21.4005 71.6249L23.0692 70.6611C26.2192 73.3562 29.8399 75.4462 33.7491 76.8261V78.75C33.7491 84.9632 38.786 90 44.9991 90C51.2123 90 56.2491 84.9632 56.2491 78.75V76.8262C60.1589 75.4441 63.7798 73.3516 66.9291 70.6537L68.6053 71.6212C73.99 74.7278 80.8738 72.881 83.9804 67.4961C87.087 62.1114 85.2402 55.2277 79.8553 52.1211L78.1903 51.1611C78.9399 47.0828 78.9399 42.9021 78.1903 38.8236L79.8553 37.8636C85.24 34.757 87.087 27.8735 83.9804 22.4886C80.8738 17.1039 73.9902 15.2569 68.6053 18.3635L66.9366 19.3273C63.7835 16.6356 60.1603 14.5494 56.2491 13.1738V11.25C56.2491 5.03684 51.2123 0 44.9991 0C38.786 0 33.7491 5.03684 33.7491 11.25V13.1738C29.8394 14.5559 26.2185 16.6484 23.0692 19.3463L21.393 18.3751C16.0081 15.2684 9.12448 17.1153 6.0179 22.5C2.91131 27.8847 4.75807 34.7685 10.143 37.8751L11.808 38.835C11.0584 42.9133 11.0584 47.0941 11.808 51.1726L10.143 52.1325C4.77301 55.2473 2.93223 62.1176 6.02545 67.5ZM44.9991 30.0001C53.2834 30.0001 59.9991 36.7158 59.9991 45C59.9991 53.2842 53.2834 59.9999 44.9991 59.9999C36.7149 59.9999 29.9992 53.2842 29.9992 45C29.9992 36.7158 36.7149 30.0001 44.9991 30.0001Z" fill="#DAD7D7"/>
</svg>
