<svg width="731" height="269" viewBox="0 0 731 269" fill="none" xmlns="http://www.w3.org/2000/svg">
<g filter="url(#filter0_d_582_1770)">
<rect x="21" y="17" width="689" height="227" rx="100" fill="#4FB8DE"/>
<rect x="12.5" y="8.5" width="706" height="244" rx="108.5" stroke="#F2F1F1" stroke-width="17"/>
</g>
<path d="M653.613 218.008C669.864 206.567 677.552 197.891 681.102 188.825C684.651 179.765 673.125 173.922 665.267 179.66L640.542 197.717C639.305 198.62 637.907 199.279 636.423 199.656L611.142 206.086C598.713 209.248 599.575 225.35 612.392 224.905C623.658 224.515 635.338 222.901 649.403 219.852C650.906 219.526 652.355 218.893 653.613 218.008Z" fill="#FFFEFE" fill-opacity="0.8"/>
<path d="M51.4719 72.8796C49.1043 78.1231 47.5377 83.3601 46.5399 88.5736C45.187 95.6418 53.6458 99.0904 58.5694 93.8419L87.6476 62.8452C88.4994 61.9372 89.5513 61.2405 90.7197 60.8106L139.808 42.7499C147.313 39.9886 146.362 30.09 138.365 30.0063C131.705 29.9366 125.37 30.453 118.98 31.4023C91.5557 35.4769 62.8817 47.6104 51.4719 72.8796Z" fill="#FFFEFE" fill-opacity="0.8"/>
<ellipse cx="684.482" cy="154.753" rx="7.48235" ry="10.7526" fill="white" fill-opacity="0.8"/>
<defs>
<filter id="filter0_d_582_1770" x="0" y="0" width="731" height="269" filterUnits="userSpaceOnUse" color-interpolation-filters="sRGB">
<feFlood flood-opacity="0" result="BackgroundImageFix"/>
<feColorMatrix in="SourceAlpha" type="matrix" values="0 0 0 0 0 0 0 0 0 0 0 0 0 0 0 0 0 0 127 0" result="hardAlpha"/>
<feOffset dy="4"/>
<feGaussianBlur stdDeviation="2"/>
<feComposite in2="hardAlpha" operator="out"/>
<feColorMatrix type="matrix" values="0 0 0 0 0 0 0 0 0 0 0 0 0 0 0 0 0 0 0.25 0"/>
<feBlend mode="normal" in2="BackgroundImageFix" result="effect1_dropShadow_582_1770"/>
<feBlend mode="normal" in="SourceGraphic" in2="effect1_dropShadow_582_1770" result="shape"/>
</filter>
</defs>
</svg>
